# xmcd CD database file
#
# Track frame offsets:
#	150
#	20082
#	40867
#	60815
#
# Disc length: 1085 seconds
#
# Revision: 0
# Processed by: cddbd v1.5PL3 Copyright (c) Steve Scherf et al.
# Submitted via: CDex 1.50
#
DISCID=27043b04
DTITLE=MANISH - 煌く瞬間に捕われて
DYEAR=1995
DGENRE=JPop
TTITLE0=煌く瞬間に捕われて
TTITLE1=眩しいくらいに…
TTITLE2=煌く瞬間に捕われて（オリジナル・カラオケ）
TTITLE3=眩しいくらいに…（オリジナル・カラオケ）
EXTD=YEAR: 1995
EXTT0=
EXTT1=
EXTT2=
EXTT3=
PLAYORDER=
